<svg width="48" height="49" viewBox="0 0 48 49" fill="none" xmlns="http://www.w3.org/2000/svg">
<path fill-rule="evenodd" clip-rule="evenodd" d="M41.4306 16.8636L47.4588 19.9606C47.7889 20.1308 47.9979 20.468 48 20.8384C48.0019 21.2088 47.7988 21.549 47.4706 21.724L32.4707 29.6872C32.3242 29.765 32.1621 29.8038 32 29.8038C31.8418 29.8038 31.6856 29.7669 31.541 29.693L24 25.819L16.4591 29.693C16.3145 29.7669 16.1583 29.8038 16.0001 29.8038C15.838 29.8038 15.6759 29.765 15.5293 29.6872L0.529418 21.724C0.201294 21.549 -0.00186081 21.2088 0.00010793 20.8384C0.00207667 20.4681 0.211044 20.1308 0.541136 19.9606L6.56923 16.8637L0.541043 13.7666C0.210951 13.5965 0.00198292 13.2592 1.41806e-05 12.8888C-0.00195456 12.5185 0.201201 12.1783 0.529324 12.0033L15.5292 4.0401C15.8164 3.88648 16.166 3.88452 16.459 4.03424L24 7.90828L31.5409 4.03414C31.8339 3.88452 32.1796 3.88638 32.4706 4.04001L47.4706 12.0032C47.7987 12.1782 48.0018 12.5184 47.9999 12.8887C47.9979 13.2591 47.7889 13.5964 47.4588 13.7665L41.4306 16.8636ZM10.9308 16.8637L24 23.5781L37.0691 16.8636L24 10.1492L10.9308 16.8637Z" fill="#C6CDD7"/>
<path d="M22.5195 29.3557C22.2246 29.1759 21.8515 29.1632 21.5409 29.3217L17.3749 31.4622C16.5175 31.9035 15.4433 31.8958 14.5878 31.4427L9.47068 28.7258C9.16206 28.5625 8.78903 28.5703 8.48631 28.7511C8.1836 28.9309 7.99994 29.2546 7.99994 29.6045V38.0262C7.99994 38.3936 8.2031 38.7319 8.52925 38.9049L21.5292 45.8066C21.6757 45.8844 21.8378 45.9232 21.9999 45.9232C22.1777 45.9232 22.3554 45.8756 22.5136 45.7814C22.8163 45.6015 23 45.2778 23 44.9279V30.2063C23 29.8592 22.8184 29.5365 22.5195 29.3557Z" fill="#C6CDD7"/>
<path d="M38.5292 28.7258C38.8358 28.5625 39.2108 28.5702 39.5136 28.7511C39.8164 28.931 39.9999 29.2546 39.9999 29.6046V38.0263C39.9999 38.3937 39.7968 38.732 39.4706 38.905L26.4708 45.8067C26.3242 45.8845 26.1621 45.9233 26 45.9233C25.8223 45.9233 25.6446 45.8757 25.4864 45.7814C25.1836 45.6016 25 45.2779 25 44.928V30.2063C25 29.8592 25.1816 29.5365 25.4805 29.3557C25.7754 29.1759 26.1484 29.1623 26.459 29.3217L30.625 31.4622C31.4804 31.9045 32.5566 31.8967 33.4121 31.4428L38.5292 28.7258Z" fill="#C6CDD7"/>
</svg>
